<?xml version="1.0" encoding="iso-8859-1"?>
<!-- Generator: Adobe Illustrator 18.0.0, SVG Export Plug-In . SVG Version: 6.00 Build 0)  -->
<!DOCTYPE svg PUBLIC "-//W3C//DTD SVG 1.1//EN" "http://www.w3.org/Graphics/SVG/1.1/DTD/svg11.dtd">
<svg xmlns="http://www.w3.org/2000/svg" xmlns:xlink="http://www.w3.org/1999/xlink" version="1.1" id="Capa_1" x="0px" y="0px" viewBox="0 0 330 330" style="enable-background:new 0 0 330 330;" xml:space="preserve" width="512px" height="512px">
<path d="M325.606,154.392l-130-129.999c-5.857-5.858-15.355-5.858-21.213,0c-5.858,5.858-5.858,15.355,0,21.213l104.395,104.396  l-263.79,0.014C6.715,150.016,0,156.732,0,165.016c0,8.284,6.717,15,15.001,14.999l263.784-0.014L174.394,284.393  c-5.858,5.858-5.858,15.355,0,21.213C177.322,308.535,181.161,310,185,310s7.678-1.465,10.606-4.394l130-130.001  c2.813-2.813,4.394-6.628,4.394-10.606S328.42,157.205,325.606,154.392z" fill="#414141"/>
<g>
</g>
<g>
</g>
<g>
</g>
<g>
</g>
<g>
</g>
<g>
</g>
<g>
</g>
<g>
</g>
<g>
</g>
<g>
</g>
<g>
</g>
<g>
</g>
<g>
</g>
<g>
</g>
<g>
</g>
</svg>
